<svg width="25" height="24" viewBox="0 0 25 24" fill="none" xmlns="http://www.w3.org/2000/svg">
<rect x="0.671875" y="1.4469" width="23.076" height="21.8183" stroke="white"/>
<path d="M4.375 12.8646H5.16667M17.8333 12.8646C18.0433 12.8646 18.2447 12.7768 18.3931 12.6205C18.5416 12.4642 18.625 12.2523 18.625 12.0313V8.69794C18.625 7.8646 18.15 6.19794 16.25 6.19794C14.35 6.19794 13.875 7.8646 13.875 8.69794M17.8333 12.8646V14.5313C17.8333 15.4796 17.3718 17.2379 15.6602 17.7321M17.8333 12.8646H5.16667M5.16667 12.8646V14.5313C5.16667 15.4796 5.62821 17.2379 7.33979 17.7321M6.75 19.5313L7.33979 17.7321M7.33979 17.7321C7.63271 17.8171 7.96283 17.8646 8.33333 17.8646H14.6667C15.002 17.8677 15.3362 17.8231 15.6602 17.7321M16.25 19.5313L15.6602 17.7321M13.875 8.69794H12.2917M13.875 8.69794H15.4583" stroke="white" stroke-linecap="round" stroke-linejoin="round"/>
</svg>
