<svg width="23" height="22" viewBox="0 0 23 22" fill="none" xmlns="http://www.w3.org/2000/svg">
<path d="M16.1666 1.83337H6.99996C4.46865 1.83337 2.41663 3.8854 2.41663 6.41671V15.5834C2.41663 18.1147 4.46865 20.1667 6.99996 20.1667H16.1666C18.6979 20.1667 20.75 18.1147 20.75 15.5834V6.41671C20.75 3.8854 18.6979 1.83337 16.1666 1.83337Z" stroke="white" stroke-width="2" stroke-linecap="round" stroke-linejoin="round"/>
<path d="M15.25 10.4225C15.3631 11.1854 15.2328 11.9646 14.8776 12.6491C14.5224 13.3337 13.9604 13.8888 13.2715 14.2356C12.5826 14.5823 11.8019 14.703 11.0404 14.5805C10.279 14.4579 9.57559 14.0984 9.03024 13.5531C8.4849 13.0078 8.1254 12.3043 8.00287 11.5429C7.88034 10.7815 8.00104 10.0008 8.34777 9.31188C8.69451 8.62298 9.24965 8.06096 9.93421 7.70575C10.6188 7.35055 11.3979 7.22024 12.1608 7.33337C12.939 7.44876 13.6594 7.81137 14.2157 8.36765C14.772 8.92392 15.1346 9.64435 15.25 10.4225Z" stroke="white" stroke-width="2" stroke-linecap="round" stroke-linejoin="round"/>
<path d="M16.625 5.95837H16.635" stroke="white" stroke-width="2" stroke-linecap="round" stroke-linejoin="round"/>
</svg>
