<svg width="158" height="32" viewBox="0 0 158 32" fill="none" xmlns="http://www.w3.org/2000/svg">
<g clip-path="url(#clip0_21_6)">
<path d="M5.889 12.223C6.46039 12.223 7.01895 12.0536 7.49404 11.7361C7.96914 11.4187 8.33942 10.9675 8.55809 10.4396C8.77675 9.91169 8.83396 9.3308 8.72249 8.77039C8.61102 8.20998 8.33587 7.69521 7.93183 7.29118C7.5278 6.88714 7.01302 6.61199 6.45261 6.50052C5.8922 6.38905 5.31132 6.44626 4.78343 6.66492C4.25553 6.88358 3.80433 7.25387 3.48689 7.72897C3.16944 8.20406 3 8.76262 3 9.33401C3 9.7134 3.07472 10.0891 3.21991 10.4396C3.3651 10.7901 3.5779 11.1086 3.84617 11.3768C4.11444 11.6451 4.43292 11.8579 4.78343 12.0031C5.13394 12.1483 5.50961 12.223 5.889 12.223Z" fill="#A1722A"/>
<path d="M24.091 6.44499C24.6624 6.44499 25.221 6.27556 25.6961 5.95811C26.1712 5.64066 26.5414 5.18946 26.7601 4.66157C26.9788 4.13367 27.036 3.55279 26.9245 2.99238C26.813 2.43197 26.5379 1.9172 26.1339 1.51316C25.7298 1.10913 25.2151 0.833978 24.6546 0.722505C24.0942 0.611032 23.5133 0.668244 22.9855 0.886906C22.4576 1.10557 22.0064 1.47586 21.6889 1.95095C21.3715 2.42604 21.202 2.9846 21.202 3.55599C21.202 4.3222 21.5064 5.05703 22.0482 5.59882C22.59 6.14062 23.3248 6.44499 24.091 6.44499Z" fill="#A1722A"/>
<path d="M42.291 12.223C42.8624 12.223 43.4209 12.0536 43.896 11.7361C44.3711 11.4187 44.7414 10.9675 44.9601 10.4396C45.1787 9.91169 45.2359 9.3308 45.1245 8.77039C45.013 8.20998 44.7378 7.69521 44.3338 7.29118C43.9298 6.88714 43.415 6.61199 42.8546 6.50052C42.2942 6.38905 41.7133 6.44626 41.1854 6.66492C40.6575 6.88358 40.2063 7.25387 39.8889 7.72897C39.5714 8.20406 39.402 8.76262 39.402 9.33401C39.402 10.1002 39.7064 10.835 40.2481 11.3768C40.7899 11.9186 41.5248 12.223 42.291 12.223Z" fill="#A1722A"/>
<path d="M45.18 14.67V13.886C44.985 13.886 44.206 13.809 43.855 13.809C41.673 13.809 37.445 13.229 35.846 17.75L32.517 25.605L27.63 10.78C27.4469 10.2531 27.1986 9.75125 26.891 9.28599L26.871 9.26798C26.5089 8.89767 26.0764 8.60342 25.599 8.4025C25.1216 8.20159 24.6089 8.09806 24.091 8.09798C23.5803 8.06363 23.0683 8.14344 22.5923 8.33164C22.1163 8.51983 21.6881 8.81168 21.339 9.18598L21.345 9.19498C21.0121 9.68474 20.7455 10.2163 20.552 10.776L15.47 24.649L12.335 17.749C10.735 13.228 6.50898 13.808 4.32598 13.808C3.97498 13.808 3.19598 13.885 3.00098 13.885V14.665C5.33898 14.86 5.88998 16.043 7.28798 18.757L10.474 25.933L11.855 28.609C12.0556 29.1136 12.3223 29.5894 12.648 30.024L12.67 30.039C13.4985 30.7593 14.5611 31.1532 15.659 31.147C16.1417 31.2106 16.6326 31.1491 17.0846 30.9682C17.5366 30.7873 17.9345 30.4931 18.24 30.114L18.232 30.106C18.5863 29.649 18.8738 29.1439 19.086 28.606L24.091 15.386L28.991 28.707H29.024C29.2186 29.177 29.4712 29.6207 29.776 30.028L29.797 30.043C30.6263 30.7633 31.6895 31.1571 32.788 31.151C33.3256 31.1905 33.8657 31.1192 34.3747 30.9415C34.8837 30.7638 35.3507 30.4835 35.747 30.118L35.739 30.11C36.0933 29.6532 36.3805 29.1481 36.592 28.61L37.732 25.872L40.895 18.758C42.291 15.997 42.842 14.864 45.18 14.67Z" fill="#A1722A"/>
<path d="M150.178 17.462H150.754V9.91399L156.936 17.606H157.222V7.97299H156.648V15.09L151.615 8.83499C151.385 8.54536 151.088 8.3157 150.75 8.1656C150.412 8.01551 150.042 7.94942 149.673 7.97299H148.739V8.25999H148.884C149.89 8.25999 150.178 8.83499 150.178 9.69699V17.462ZM143.061 9.98499L144.786 14.155H141.264L143.061 9.98499ZM148.453 17.174C147.662 17.102 147.317 16.743 146.871 15.664L143.708 7.97299H143.276L139.25 17.462H139.897L141.047 14.73H145.074L145.434 15.664C145.578 16.2017 145.896 16.6767 146.338 17.015C146.78 17.3532 147.321 17.5357 147.878 17.534C148.072 17.5354 148.265 17.5109 148.453 17.461V17.174ZM135.066 15.736C135.066 17.174 135.353 17.462 136.359 17.462H137.653V17.175H137.366C136.504 17.175 136.359 16.6 136.359 15.737V7.97299H135.066V15.736ZM129.603 15.521C130.537 17.103 131.183 17.606 132.19 17.606C132.484 17.6129 132.776 17.564 133.052 17.462V17.175C132.334 17.103 131.845 16.744 131.111 15.522L129.602 13.005C130.22 12.9555 130.798 12.6781 131.223 12.2267C131.648 11.7752 131.89 11.1819 131.902 10.562C131.902 8.26199 129.529 7.97399 128.308 7.97399H124.57V8.26099H124.858C125.72 8.26099 125.864 8.83599 125.864 9.69799V17.462H127.157V13.077H128.163L129.603 15.521ZM128.237 12.574C127.873 12.5666 127.511 12.5183 127.158 12.43V8.61999C127.511 8.53257 127.873 8.48461 128.237 8.47699C128.519 8.45537 128.803 8.49233 129.071 8.58554C129.338 8.67876 129.583 8.82623 129.791 9.01871C129.999 9.21118 130.165 9.44451 130.278 9.70405C130.391 9.9636 130.45 10.2438 130.45 10.527C130.45 10.8102 130.391 11.0904 130.278 11.3499C130.165 11.6095 129.999 11.8428 129.791 12.0353C129.583 12.2277 129.338 12.3752 129.071 12.4684C128.803 12.5617 128.519 12.5986 128.237 12.577V12.574ZM116.422 7.97399C115.415 7.97399 115.201 8.54899 115.201 9.12399V10.202H115.484C115.484 9.05199 116.132 8.54899 117.284 8.54899H118.577V17.463H119.871V8.54799H123.106V7.97299L116.422 7.97399ZM110.215 9.98599L111.94 14.156H108.417L110.215 9.98599ZM115.607 17.175C114.816 17.103 114.471 16.744 114.025 15.665L110.862 7.97399H110.431L106.405 17.463H107.052L108.203 14.729H112.228L112.588 15.663C112.732 16.2005 113.049 16.6754 113.491 17.0136C113.933 17.3519 114.475 17.5345 115.031 17.533C115.225 17.5346 115.419 17.51 115.607 17.46V17.175ZM104.607 15.047C104.607 13.983 104.046 13.394 102.824 12.675L101.056 11.629C100.007 11.011 99.456 10.58 99.456 9.74599C99.4692 9.54069 99.5229 9.34004 99.6141 9.15561C99.7052 8.97117 99.832 8.80662 99.9871 8.67144C100.142 8.53626 100.322 8.43313 100.518 8.368C100.713 8.30288 100.919 8.27704 101.124 8.29199C102.735 8.29199 103.655 9.05499 103.971 10.981H104.23V9.43899C104.23 8.36099 102.548 7.71399 101.124 7.71399C99.442 7.71399 98.335 8.67699 98.335 10.158C98.3388 10.6907 98.5012 11.2103 98.8015 11.6504C99.1018 12.0905 99.5263 12.4312 100.021 12.629L101.79 13.678C102.839 14.296 103.372 14.828 103.372 15.661C103.371 16.613 102.484 17.129 101.484 17.129C99.874 17.129 98.909 16.338 98.593 14.411H98.334V15.95C98.334 17.027 100.045 17.704 101.612 17.704C103.471 17.707 104.607 16.657 104.607 15.047ZM91.557 9.98599L93.282 14.156H89.759L91.557 9.98599ZM96.949 17.175C96.158 17.103 95.813 16.744 95.367 15.665L92.204 7.97299H91.772L87.747 17.462H88.394L89.544 14.729H93.57L93.93 15.663C94.0738 16.2008 94.3915 16.6759 94.8336 17.0142C95.2757 17.3524 95.8173 17.5349 96.374 17.533C96.5681 17.5344 96.7615 17.5098 96.949 17.46V17.175ZM76.784 7.97299V8.25999H77.072C77.936 8.25999 78.079 8.83499 78.079 9.69699V17.461H79.373V12.717L82.392 15.88C83.759 17.318 84.692 17.606 85.484 17.606C85.8014 17.6128 86.1175 17.5641 86.418 17.462V17.189C85.4603 16.915 84.6082 16.3571 83.974 15.589L80.668 12.138L83.468 9.33799C83.7151 9.02042 84.0322 8.76416 84.3945 8.58915C84.7568 8.41415 85.1547 8.32512 85.557 8.32899V7.96999H84.838C83.688 7.96999 83.113 8.76099 82.394 9.47899L79.375 12.499V9.69899C79.375 8.26199 79.088 7.97399 78.081 7.97399L76.784 7.97299ZM73.047 15.736C73.047 17.174 73.334 17.462 74.34 17.462H75.634V17.175H75.346C74.484 17.175 74.339 16.6 74.339 15.737V7.97299H73.049L73.047 15.736ZM62.555 17.606H62.842L64.912 11.553L67.041 17.606H67.329L70.622 7.97299H70.003L67.545 15.205L65.617 9.65399C65.4949 9.10527 65.1792 8.61887 64.7279 8.28375C64.2765 7.94864 63.7196 7.78721 63.159 7.82899C63.03 7.82899 62.742 7.85799 62.671 7.85799V8.14599C63.533 8.21899 63.864 8.56299 64.252 9.65499L64.597 10.648L63.058 15.205L61.131 9.65399C61.0087 9.10555 60.6932 8.61942 60.2421 8.28436C59.791 7.94929 59.2344 7.78767 58.674 7.82899C58.544 7.82899 58.256 7.85799 58.184 7.85799V8.14599C59.046 8.21899 59.378 8.56299 59.766 9.65499L62.555 17.606Z" fill="#A1722A"/>
<path d="M141.904 29.168H141.35L141.85 26.762C141.894 26.5684 141.922 26.3713 141.932 26.173C141.936 26.0809 141.92 25.989 141.885 25.904C141.849 25.8189 141.795 25.7428 141.727 25.681C141.569 25.5536 141.37 25.4891 141.168 25.5C140.859 25.5109 140.557 25.5979 140.289 25.7531C140.021 25.9083 139.795 26.127 139.632 26.39C139.638 26.305 139.64 26.234 139.64 26.171C139.64 25.801 139.576 25.618 139.447 25.618H138.59L138.482 25.709L138.423 25.989L138.415 26.03L138.482 26.097H139.053C139.053 26.152 139.06 26.219 139.06 26.297C139.058 26.4317 139.041 26.5658 139.01 26.697L138.41 29.534L138.401 29.591L138.467 29.642H138.904L139.004 29.557L139.397 27.732C139.485 27.2867 139.69 26.8727 139.99 26.532C140.101 26.3903 140.241 26.2744 140.401 26.1922C140.561 26.11 140.737 26.0636 140.917 26.056C140.967 26.048 141.019 26.0518 141.068 26.0672C141.116 26.0826 141.161 26.109 141.197 26.1445C141.234 26.18 141.262 26.2236 141.279 26.2717C141.296 26.3199 141.301 26.3713 141.295 26.422C141.289 26.5383 141.271 26.6538 141.244 26.767L140.758 29.078C140.743 29.1414 140.735 29.206 140.732 29.271C140.732 29.521 140.872 29.647 141.153 29.647H141.791L141.9 29.564L141.958 29.284L141.966 29.217L141.904 29.168ZM135.804 27.568C135.736 27.9492 135.587 28.3116 135.368 28.631C135.276 28.7877 135.148 28.9203 134.994 29.0178C134.841 29.1153 134.666 29.175 134.485 29.192C134.139 29.192 133.965 28.968 133.965 28.523C133.972 27.9552 134.103 27.3959 134.351 26.885C134.607 26.332 134.922 26.054 135.29 26.054C135.584 26.0728 135.859 26.2072 136.054 26.428L135.804 27.568ZM136.743 29.168H136.182L136.173 29.009C136.171 28.8413 136.185 28.6738 136.216 28.509L136.802 25.731L136.81 25.664L136.743 25.623H136.409L136.298 25.69L136.181 25.958C136.073 25.8125 135.937 25.6901 135.781 25.598C135.624 25.5283 135.453 25.4965 135.281 25.505C135.011 25.5166 134.749 25.5987 134.521 25.7431C134.293 25.8875 134.107 26.0892 133.981 26.328C133.546 26.9909 133.319 27.7683 133.328 28.561C133.31 28.8767 133.4 29.1891 133.583 29.447C133.665 29.5518 133.771 29.6358 133.891 29.6919C134.012 29.748 134.144 29.7748 134.277 29.77C134.559 29.7508 134.83 29.6575 135.064 29.4994C135.298 29.3413 135.486 29.1242 135.609 28.87C135.599 28.9509 135.594 29.0324 135.594 29.114C135.583 29.1858 135.588 29.2592 135.61 29.3284C135.632 29.3977 135.67 29.4609 135.721 29.513C135.771 29.5651 135.833 29.6047 135.902 29.6287C135.971 29.6526 136.044 29.6602 136.116 29.651H136.636L136.744 29.568L136.803 29.288L136.811 29.229L136.743 29.168ZM131.666 29.168H131.111L131.611 26.762C131.656 26.5685 131.684 26.3714 131.695 26.173C131.7 26.0809 131.684 25.9889 131.648 25.9038C131.613 25.8187 131.559 25.7426 131.49 25.681C131.332 25.5538 131.133 25.4894 130.931 25.5C130.622 25.5108 130.32 25.5977 130.052 25.7529C129.784 25.9082 129.559 26.127 129.396 26.39C129.402 26.305 129.404 26.234 129.404 26.171C129.404 25.801 129.339 25.618 129.211 25.618H128.354L128.243 25.709L128.186 25.989L128.176 26.03L128.243 26.097H128.814C128.82 26.1634 128.823 26.2302 128.822 26.297C128.819 26.4316 128.803 26.5657 128.773 26.697L128.173 29.534L128.165 29.591L128.231 29.642H128.668L128.768 29.557L129.162 27.732C129.249 27.2863 129.453 26.872 129.754 26.532C129.865 26.3903 130.006 26.2744 130.166 26.1922C130.326 26.11 130.502 26.0636 130.682 26.056C130.732 26.048 130.784 26.0518 130.833 26.0672C130.881 26.0826 130.926 26.109 130.962 26.1445C130.999 26.18 131.027 26.2236 131.044 26.2717C131.061 26.3199 131.066 26.3713 131.06 26.422C131.053 26.5382 131.036 26.6537 131.009 26.767L130.522 29.078C130.506 29.1412 130.498 29.2059 130.496 29.271C130.496 29.521 130.637 29.647 130.916 29.647H131.553L131.664 29.564L131.723 29.284L131.73 29.217L131.666 29.168ZM126.571 25.618H125.371L125.262 25.699L125.203 25.988L125.196 26.045L125.262 26.096H125.942L125.312 29.073C125.299 29.1372 125.294 29.2026 125.296 29.268C125.296 29.52 125.437 29.646 125.716 29.646H126.353L126.453 29.563L126.52 29.283L126.527 29.224L126.453 29.167H125.904L126.634 25.726L126.644 25.685L126.571 25.618ZM126.96 23.809C126.919 23.7648 126.869 23.7296 126.813 23.7055C126.757 23.6814 126.698 23.669 126.637 23.669C126.574 23.6683 126.511 23.6803 126.453 23.7042C126.394 23.7281 126.341 23.7634 126.296 23.8081C126.252 23.8528 126.217 23.906 126.193 23.9646C126.169 24.0231 126.157 24.0858 126.158 24.149C126.158 24.2094 126.17 24.2692 126.194 24.3247C126.217 24.3803 126.252 24.4304 126.296 24.472C126.34 24.5157 126.391 24.5505 126.448 24.5742C126.505 24.5979 126.566 24.6101 126.628 24.6101C126.69 24.6101 126.751 24.5979 126.808 24.5742C126.865 24.5505 126.917 24.5157 126.96 24.472C127.004 24.4285 127.038 24.3768 127.062 24.3199C127.086 24.2631 127.098 24.2021 127.098 24.1405C127.098 24.0789 127.086 24.0179 127.062 23.961C127.038 23.9041 127.004 23.8525 126.96 23.809ZM122.643 28.368C122.414 28.9253 122.117 29.2036 121.752 29.203C121.431 29.1864 121.124 29.0699 120.872 28.87L121.166 27.484C121.22 27.1254 121.355 26.7836 121.559 26.484C121.656 26.3522 121.782 26.2446 121.928 26.1695C122.073 26.0944 122.234 26.0539 122.398 26.051C122.768 26.051 122.953 26.307 122.953 26.819C122.952 27.3506 122.846 27.8767 122.643 28.368ZM122.609 25.494C122.364 25.5042 122.125 25.5691 121.909 25.6838C121.693 25.7985 121.505 25.9602 121.359 26.157C121.343 25.957 121.331 25.844 121.325 25.82C121.286 25.68 121.213 25.611 121.107 25.611H120.24L120.14 25.702L120.074 25.982L120.064 26.031L120.14 26.09H120.711C120.73 26.1889 120.742 26.2892 120.745 26.39C120.742 26.5582 120.722 26.7256 120.686 26.89L119.846 30.857H119.404L119.295 30.94L119.237 31.222L119.229 31.287L119.295 31.336H120.932L121.032 31.255L121.098 30.973L121.106 30.914L121.032 30.857H120.451L120.762 29.406C121.045 29.6275 121.393 29.7511 121.752 29.758C121.995 29.7578 122.233 29.6952 122.445 29.5763C122.657 29.4574 122.834 29.2862 122.961 29.079C123.393 28.4314 123.613 27.6659 123.591 26.888C123.592 25.9613 123.264 25.498 122.609 25.498V25.494ZM118.496 29.168H117.941L118.455 26.737C118.497 26.5573 118.522 26.3742 118.53 26.19C118.534 26.0978 118.519 26.0058 118.486 25.9197C118.453 25.8337 118.402 25.7554 118.337 25.69C118.264 25.6253 118.179 25.5756 118.086 25.5439C117.994 25.5121 117.896 25.4989 117.799 25.505C117.475 25.5046 117.158 25.6045 116.893 25.791C116.704 25.9347 116.54 26.1075 116.405 26.303C116.389 25.7696 116.165 25.503 115.734 25.503C115.453 25.5005 115.176 25.5734 114.933 25.7141C114.689 25.8548 114.488 26.0581 114.35 26.303V26.228C114.35 25.819 114.285 25.616 114.157 25.616H113.316L113.216 25.707L113.157 25.987L113.149 26.044L113.216 26.095H113.787L113.795 26.262C113.792 26.4153 113.772 26.5679 113.736 26.717L113.141 29.536L113.131 29.593L113.2 29.644H113.635L113.735 29.559L114.146 27.659C114.213 27.2579 114.358 26.8739 114.573 26.529C114.671 26.3849 114.803 26.2665 114.956 26.1837C115.11 26.1009 115.281 26.056 115.455 26.053C115.713 26.053 115.843 26.171 115.843 26.411C115.836 26.5213 115.819 26.6307 115.792 26.738L115.192 29.538V29.562L115.184 29.595L115.251 29.646H115.704L115.804 29.561L116.204 27.72C116.264 27.3323 116.392 26.958 116.58 26.614C116.678 26.4456 116.817 26.3055 116.985 26.2074C117.154 26.1094 117.344 26.0569 117.539 26.055C117.588 26.0478 117.638 26.0521 117.684 26.0675C117.731 26.0829 117.774 26.1091 117.809 26.1438C117.844 26.1786 117.87 26.221 117.886 26.2677C117.901 26.3144 117.906 26.3642 117.899 26.413C117.896 26.523 117.882 26.6325 117.858 26.74L117.358 29.085C117.344 29.143 117.336 29.2023 117.333 29.262C117.333 29.518 117.477 29.646 117.762 29.646H118.397L118.497 29.563L118.564 29.283V29.248L118.572 29.215L118.496 29.168ZM111.537 25.618H110.337L110.227 25.699L110.168 25.988L110.16 26.045L110.227 26.096H110.904L110.274 29.073C110.262 29.1372 110.256 29.2026 110.258 29.268C110.258 29.52 110.396 29.646 110.677 29.646H111.313L111.413 29.563L111.48 29.283L111.488 29.224L111.413 29.167H110.858L111.588 25.726L111.596 25.685L111.537 25.618ZM111.927 23.809C111.886 23.7646 111.836 23.7292 111.78 23.7051C111.725 23.681 111.665 23.6687 111.604 23.669C111.541 23.6688 111.479 23.6812 111.42 23.7053C111.362 23.7294 111.309 23.7648 111.265 23.8094C111.221 23.854 111.185 23.907 111.162 23.9653C111.138 24.0236 111.126 24.086 111.126 24.149C111.126 24.2095 111.139 24.2694 111.163 24.3249C111.187 24.3804 111.222 24.4305 111.266 24.472C111.309 24.516 111.361 24.5509 111.417 24.5746C111.474 24.5983 111.535 24.6104 111.597 24.61C111.659 24.6108 111.72 24.5989 111.777 24.5752C111.834 24.5515 111.885 24.5163 111.928 24.472C111.972 24.4288 112.007 24.3772 112.031 24.3203C112.055 24.2633 112.067 24.2022 112.067 24.1405C112.067 24.0787 112.055 24.0176 112.031 23.9607C112.007 23.9038 111.972 23.8522 111.928 23.809H111.927ZM108.424 29.168H107.869L108.381 26.737C108.424 26.5575 108.45 26.3744 108.458 26.19C108.462 26.0978 108.447 26.0058 108.414 25.9197C108.381 25.8336 108.33 25.7554 108.265 25.69C108.117 25.5599 107.924 25.4934 107.728 25.505C107.403 25.5046 107.086 25.6044 106.82 25.791C106.633 25.936 106.469 26.1086 106.334 26.303C106.316 25.771 106.094 25.503 105.663 25.503C105.382 25.5002 105.105 25.573 104.861 25.7137C104.617 25.8544 104.415 26.0579 104.277 26.303V26.228C104.277 25.819 104.212 25.616 104.084 25.616H103.244L103.144 25.707L103.085 25.987L103.077 26.044L103.144 26.095H103.713L103.723 26.262C103.719 26.4152 103.699 26.5677 103.664 26.717L103.069 29.536L103.059 29.593L103.126 29.644H103.563L103.663 29.559L104.075 27.659C104.142 27.2579 104.287 26.8739 104.502 26.529C104.6 26.3846 104.731 26.2659 104.885 26.183C105.038 26.1002 105.21 26.0555 105.384 26.053C105.642 26.053 105.77 26.171 105.77 26.411C105.764 26.5212 105.747 26.6307 105.721 26.738L105.121 29.538V29.562L105.113 29.595L105.178 29.646H105.623L105.723 29.561L106.123 27.72C106.182 27.332 106.31 26.9576 106.499 26.614C106.596 26.4457 106.736 26.3057 106.903 26.2077C107.071 26.1097 107.262 26.057 107.456 26.055C107.505 26.0477 107.555 26.0519 107.602 26.0672C107.649 26.0825 107.691 26.1086 107.727 26.1434C107.762 26.1781 107.788 26.2206 107.804 26.2674C107.82 26.3142 107.825 26.364 107.818 26.413C107.815 26.5232 107.801 26.6328 107.775 26.74L107.281 29.085C107.266 29.1429 107.258 29.2022 107.255 29.262C107.255 29.518 107.397 29.646 107.682 29.646H108.32L108.42 29.563L108.487 29.283V29.248L108.495 29.215L108.424 29.168ZM99.147 27.532C99.2086 27.1235 99.3769 26.7385 99.635 26.416C99.7346 26.2911 99.861 26.1903 100.005 26.1211C100.149 26.0518 100.306 26.0159 100.466 26.016C100.866 26.016 101.066 26.209 101.066 26.595C101.069 27.2183 100.43 27.5296 99.147 27.529V27.532ZM101.372 25.786C101.262 25.6869 101.134 25.6106 100.994 25.5616C100.855 25.5125 100.707 25.4915 100.559 25.5C100.313 25.496 100.069 25.5441 99.8432 25.6411C99.6173 25.7381 99.4144 25.8819 99.248 26.063C98.6995 26.6512 98.4071 27.4332 98.435 28.237C98.435 29.255 98.8884 29.7643 99.795 29.765C100.325 29.7588 100.84 29.5836 101.264 29.265L101.347 29.165L101.331 29.124L101.131 28.824L101.064 28.775L100.948 28.824C100.628 29.0505 100.247 29.1765 99.855 29.186C99.329 29.186 99.0667 28.8723 99.068 28.245V28.045C99.663 28.0654 100.257 27.9801 100.822 27.793C101.078 27.7115 101.3 27.5478 101.453 27.3274C101.606 27.107 101.682 26.8421 101.669 26.574C101.678 26.4287 101.656 26.2832 101.604 26.147C101.553 26.0107 101.474 25.8867 101.372 25.783V25.786ZM95.984 28.368C95.754 28.925 95.458 29.203 95.094 29.203C94.7725 29.1866 94.4641 29.0702 94.212 28.87L94.504 27.488C94.5599 27.1286 94.6967 26.7867 94.904 26.488C95.0012 26.3562 95.1275 26.2486 95.273 26.1735C95.4185 26.0984 95.5793 26.0579 95.743 26.055C96.113 26.055 96.298 26.311 96.298 26.823C96.295 27.3535 96.1883 27.8783 95.984 28.368ZM95.951 25.494C95.7062 25.5044 95.4667 25.5694 95.2501 25.6841C95.0336 25.7988 94.8453 25.9603 94.699 26.157C94.683 25.957 94.671 25.844 94.666 25.82C94.627 25.68 94.554 25.611 94.449 25.611H93.583L93.483 25.702L93.416 25.982L93.404 26.035L93.479 26.094H94.05C94.0688 26.193 94.0798 26.2933 94.083 26.394C94.0808 26.5622 94.061 26.7298 94.024 26.894L93.185 30.861H92.74L92.632 30.944L92.573 31.226L92.565 31.291L92.632 31.34H94.268L94.368 31.259L94.435 30.977L94.445 30.918L94.368 30.861H93.789L94.1 29.41C94.3829 29.632 94.7305 29.7556 95.09 29.762C95.3328 29.7616 95.5714 29.6989 95.783 29.5801C95.9947 29.4612 96.1723 29.29 96.299 29.083C96.7298 28.435 96.9498 27.6698 96.929 26.892C96.931 25.9626 96.6047 25.498 95.95 25.498L95.951 25.494ZM89.551 27.526C89.612 27.1177 89.7797 26.7327 90.037 26.41C90.1366 26.2851 90.263 26.1843 90.4068 26.1151C90.5507 26.0458 90.7083 26.0099 90.868 26.01C91.2714 26.01 91.4714 26.203 91.468 26.589C91.4674 27.2163 90.8267 27.5296 89.546 27.529L89.551 27.526ZM91.776 25.78C91.6658 25.6808 91.5371 25.6044 91.3972 25.5553C91.2573 25.5062 91.109 25.4854 90.961 25.494C90.7154 25.4899 90.4718 25.538 90.2461 25.6351C90.0205 25.7321 89.818 25.8759 89.652 26.057C89.3797 26.3478 89.1676 26.6896 89.0277 27.0627C88.8879 27.4358 88.8231 27.8328 88.837 28.231C88.837 29.249 89.2904 29.7583 90.197 29.759C90.7274 29.7528 91.242 29.5776 91.666 29.259L91.749 29.159L91.733 29.118L91.533 28.818L91.466 28.769L91.348 28.818C91.0283 29.0441 90.6485 29.1701 90.257 29.18C89.731 29.18 89.468 28.8663 89.468 28.239V28.039C90.063 28.0594 90.6569 27.9741 91.222 27.787C91.4767 27.7043 91.6971 27.5402 91.8492 27.3199C92.0014 27.0996 92.0769 26.8354 92.064 26.568C92.0716 26.4239 92.0494 26.2799 91.9988 26.1448C91.9483 26.0098 91.8704 25.8866 91.77 25.783L91.776 25.78ZM88.417 23.88H86.897L86.789 23.973L86.722 24.284L86.714 24.351L86.789 24.4H87.189L85.096 26.588L85.557 24.405H86.104L86.212 24.322L86.279 24.003V23.936L86.212 23.885H84.458L84.358 23.97L84.281 24.289V24.348L84.348 24.405H84.893L83.893 29.124H83.34L83.24 29.207L83.175 29.526L83.165 29.593L83.232 29.644H84.986L85.096 29.559L85.163 29.242L85.171 29.183L85.104 29.124H84.551L85.071 26.681L86.313 29.124H85.834L85.724 29.216L85.659 29.525L85.649 29.592L85.716 29.643H87.37L87.47 29.558L87.535 29.241L87.553 29.172L87.478 29.123H87.094L85.775 26.646L87.95 24.404H88.3L88.4 24.321L88.467 24.002L88.475 23.935L88.417 23.88ZM80.233 25.611H79.093L79.363 24.325L79.371 24.284L79.322 24.225L79.263 24.233L78.816 24.368L78.733 24.453L78.489 25.62H77.877L77.777 25.701L77.71 25.99L77.702 26.047L77.769 26.098H78.381L77.881 28.429C77.8426 28.5971 77.8202 28.7686 77.814 28.941C77.7971 29.0516 77.8062 29.1647 77.8405 29.2712C77.8747 29.3778 77.9333 29.4749 78.0116 29.5549C78.0899 29.6349 78.1857 29.6956 78.2914 29.7323C78.3972 29.7689 78.51 29.7804 78.621 29.766C78.8677 29.762 79.1118 29.7146 79.342 29.626C79.6 29.536 79.728 29.449 79.728 29.372L79.72 29.321L79.669 29.035L79.628 28.984L79.569 29C79.3339 29.1207 79.0767 29.1925 78.813 29.211C78.567 29.211 78.445 29.083 78.445 28.825C78.4445 28.6906 78.4582 28.5565 78.486 28.425L78.986 26.1H80.018L80.128 26.033L80.28 25.733L80.304 25.668L80.233 25.611ZM75.081 27.568C75.0125 27.9493 74.8635 28.3117 74.644 28.631C74.5522 28.7875 74.4246 28.9199 74.2716 29.0175C74.1186 29.115 73.9446 29.1748 73.764 29.192C73.417 29.192 73.244 28.968 73.244 28.523C73.2508 27.9552 73.3826 27.396 73.63 26.885C73.888 26.3316 74.201 26.0546 74.569 26.054C74.863 26.0731 75.1376 26.2075 75.333 26.428L75.081 27.568ZM76.022 29.168H75.459L75.451 29.009C75.4484 28.8414 75.4621 28.6739 75.492 28.509L76.081 25.731L76.089 25.664L76.022 25.623H75.685L75.577 25.69L75.459 25.958C75.3512 25.8123 75.2152 25.6899 75.059 25.598C74.902 25.5281 74.7307 25.4963 74.559 25.505C74.2893 25.5164 74.0272 25.5985 73.7991 25.7429C73.571 25.8873 73.3848 26.089 73.259 26.328C72.8233 26.9905 72.5955 27.7681 72.605 28.561C72.5871 28.8768 72.6774 29.1893 72.861 29.447C72.9423 29.5518 73.0474 29.6357 73.1675 29.6919C73.2877 29.748 73.4195 29.7748 73.552 29.77C73.8341 29.7507 74.106 29.6574 74.3405 29.4993C74.5749 29.3413 74.7634 29.1242 74.887 28.87C74.8753 28.9508 74.87 29.0323 74.871 29.114C74.8596 29.1856 74.865 29.2589 74.8868 29.3281C74.9086 29.3973 74.9462 29.4604 74.9967 29.5126C75.0471 29.5647 75.1091 29.6043 75.1775 29.6283C75.246 29.6524 75.3191 29.6601 75.391 29.651H75.913L76.021 29.568L76.08 29.288L76.088 29.229L76.022 29.168ZM71.053 25.604C70.8445 25.5361 70.6263 25.5023 70.407 25.504C70.0399 25.4875 69.68 25.61 69.399 25.847C69.2732 25.9574 69.1733 26.0942 69.1066 26.2477C69.0398 26.4013 69.0079 26.5676 69.013 26.735C69.02 26.9181 69.0738 27.0964 69.1692 27.2529C69.2646 27.4094 69.3984 27.5388 69.558 27.629C69.7613 27.7584 69.9572 27.899 70.145 28.05C70.2131 28.1093 70.2673 28.1829 70.3037 28.2655C70.3402 28.3481 70.358 28.4377 70.356 28.528C70.3589 28.6207 70.3415 28.7129 70.305 28.7983C70.2686 28.8836 70.214 28.9599 70.145 29.022C69.9947 29.1535 69.7995 29.2219 69.6 29.213C69.3579 29.2135 69.1187 29.1598 68.9 29.056L69.026 28.456L69.034 28.399L68.959 28.34H68.589L68.489 28.432L68.296 29.314L68.288 29.363L68.314 29.422C68.4631 29.5385 68.6358 29.6211 68.82 29.664C69.0397 29.7296 69.2677 29.7633 69.497 29.764C69.8379 29.7791 70.1743 29.6814 70.454 29.486C70.6231 29.3631 70.7591 29.2002 70.8498 29.0119C70.9406 28.8236 70.9832 28.6158 70.974 28.407C70.9635 28.2019 70.8999 28.003 70.7894 27.8298C70.679 27.6566 70.5255 27.5151 70.344 27.419C70.055 27.219 69.875 27.094 69.808 27.033C69.7554 26.9871 69.7131 26.9306 69.684 26.8671C69.6549 26.8037 69.6395 26.7348 69.639 26.665C69.6352 26.5804 69.6505 26.4961 69.684 26.4183C69.7174 26.3405 69.768 26.2714 69.832 26.216C69.9839 26.1009 70.1718 26.0438 70.362 26.055C70.5016 26.0551 70.6402 26.077 70.773 26.12L70.655 26.659L70.647 26.726L70.722 26.775H71.092L71.192 26.69L71.359 25.9L71.367 25.825C71.362 25.748 71.26 25.668 71.053 25.602V25.604ZM67.082 25.525L67.033 25.533L66.596 25.626L66.511 25.718L66.066 27.791C66.0119 28.1307 65.8671 28.4496 65.647 28.714C65.5259 28.8579 65.3759 28.9749 65.2068 29.0572C65.0376 29.1396 64.853 29.1855 64.665 29.192C64.6099 29.1986 64.5541 29.1924 64.5018 29.1739C64.4495 29.1554 64.4022 29.1251 64.3635 29.0853C64.3248 29.0455 64.2958 28.9974 64.2787 28.9446C64.2616 28.8919 64.2569 28.8359 64.265 28.781C64.2683 28.5915 64.2907 28.4029 64.332 28.218L64.87 25.71V25.668L64.821 25.619H63.658L63.558 25.71L63.499 25.99L63.491 26.039L63.558 26.098H64.18L63.692 28.386C63.6512 28.577 63.6294 28.7716 63.627 28.967C63.6226 29.0756 63.6419 29.1839 63.6838 29.2842C63.7256 29.3846 63.7888 29.4746 63.869 29.548C64.0462 29.6992 64.2743 29.7775 64.507 29.767C64.7856 29.7472 65.0564 29.6662 65.3001 29.5298C65.5438 29.3934 65.7544 29.205 65.917 28.978L65.909 29.155C65.909 29.484 66.063 29.649 66.372 29.649H66.933L67.043 29.566L67.1 29.286L67.11 29.219L67.035 29.17H66.48L66.472 28.985C66.4744 28.8167 66.4941 28.6491 66.531 28.485L67.131 25.632L67.139 25.581L67.082 25.525ZM61.459 26.346C61.1941 26.5662 60.8534 26.674 60.51 26.646H59.963L60.418 24.488H61.131C61.3371 24.4679 61.5439 24.5179 61.718 24.63C61.781 24.6975 61.8287 24.7779 61.8579 24.8655C61.8871 24.9532 61.897 25.0461 61.887 25.138C61.9005 25.3574 61.8695 25.5774 61.796 25.7846C61.7225 25.9918 61.6078 26.1821 61.459 26.344V26.346ZM62.12 24.064C61.8282 23.9228 61.5042 23.8617 61.181 23.887H59.335L59.235 23.972L59.16 24.291V24.35L59.227 24.407H59.774L58.774 29.126H58.221L58.121 29.209L58.056 29.528L58.046 29.595L58.113 29.646H59.968L60.078 29.561L60.145 29.244L60.153 29.175L60.078 29.126H59.43L59.841 27.195H60.441C60.9431 27.2281 61.4412 27.0868 61.851 26.795C62.0977 26.5842 62.2917 26.3186 62.4172 26.0194C62.5428 25.7202 62.5965 25.3957 62.574 25.072C62.5944 24.8785 62.5631 24.6831 62.4834 24.5057C62.4036 24.3282 62.2782 24.1751 62.12 24.062V24.064Z" fill="#A1722A"/>
</g>
<defs>
<clipPath id="clip0_21_6">
<rect width="157.222" height="31" fill="white" transform="translate(0 0.666992)"/>
</clipPath>
</defs>
</svg>
