<svg width="330" height="65" viewBox="0 0 330 65" fill="none" xmlns="http://www.w3.org/2000/svg">
<g clip-path="url(#clip0_26_24)">
<path d="M12.3607 24.2303C13.56 24.2303 14.7324 23.8751 15.7296 23.2094C16.7267 22.5438 17.504 21.5978 17.9629 20.4909C18.4219 19.384 18.542 18.166 18.308 16.991C18.074 15.8159 17.4965 14.7366 16.6484 13.8894C15.8004 13.0422 14.7199 12.4653 13.5437 12.2316C12.3674 11.9978 11.1482 12.1178 10.0401 12.5763C8.93211 13.0348 7.98506 13.8112 7.31876 14.8073C6.65245 15.8035 6.29681 16.9747 6.29681 18.1728C6.29681 18.9682 6.45366 19.756 6.75839 20.4909C7.06313 21.2258 7.50979 21.8936 8.07287 22.4561C8.63595 23.0186 9.30443 23.4648 10.0401 23.7692C10.7758 24.0737 11.5643 24.2303 12.3607 24.2303Z" fill="white"/>
<path d="M50.5656 12.1152C51.7649 12.1152 52.9373 11.7599 53.9345 11.0943C54.9317 10.4287 55.7089 9.4826 56.1679 8.37572C56.6268 7.26884 56.7469 6.05086 56.5129 4.87581C56.279 3.70075 55.7014 2.62139 54.8534 1.77423C54.0054 0.927059 52.9249 0.350131 51.7486 0.116397C50.5723 -0.117336 49.3531 0.00262465 48.2451 0.461109C47.1371 0.919592 46.19 1.69601 45.5237 2.69217C44.8574 3.68834 44.5018 4.85951 44.5018 6.05758C44.5018 7.66415 45.1406 9.20492 46.2778 10.3409C47.415 11.477 48.9574 12.1152 50.5656 12.1152Z" fill="white"/>
<path d="M88.7664 24.2303C89.9657 24.2303 91.1381 23.8751 92.1353 23.2094C93.1324 22.5438 93.9097 21.5978 94.3686 20.4909C94.8276 19.384 94.9477 18.166 94.7137 16.991C94.4797 15.8159 93.9022 14.7366 93.0541 13.8894C92.2061 13.0422 91.1256 12.4653 89.9494 12.2316C88.7731 11.9978 87.5539 12.1178 86.4458 12.5763C85.3378 13.0348 84.3908 13.8112 83.7245 14.8073C83.0582 15.8035 82.7025 16.9747 82.7025 18.1728C82.7025 19.7793 83.3414 21.3201 84.4786 22.4561C85.6158 23.5921 87.1581 24.2303 88.7664 24.2303Z" fill="white"/>
<path d="M94.8303 29.3611V27.7173C94.421 27.7173 92.7859 27.5558 92.0491 27.5558C87.4693 27.5558 78.5949 26.3397 75.2387 35.8192L68.2513 52.2893L57.9938 21.2047C57.6095 20.1 57.0884 19.0476 56.4427 18.0721L56.4007 18.0343C55.6406 17.2579 54.733 16.6409 53.731 16.2196C52.7289 15.7984 51.6528 15.5813 50.5656 15.5811C49.4937 15.5091 48.4191 15.6764 47.42 16.071C46.4208 16.4656 45.5222 17.0776 44.7894 17.8624L44.802 17.8813C44.1034 18.9082 43.5437 20.0229 43.1375 21.1963L32.4707 50.2848L25.8905 35.8171C22.5322 26.3376 13.662 27.5537 9.08005 27.5537C8.34332 27.5537 6.70824 27.7152 6.29895 27.7152V29.3506C11.2063 29.7595 12.3628 32.24 15.2971 37.9306L21.9843 52.9771L24.883 58.5881C25.3041 59.6462 25.8638 60.6439 26.5474 61.555L26.5936 61.5864C28.3327 63.0968 30.563 63.9226 32.8674 63.9097C33.8805 64.0432 34.911 63.914 35.8597 63.5347C36.8085 63.1554 37.6436 62.5386 38.2847 61.7437L38.268 61.7269C39.0117 60.7687 39.6152 59.7097 40.0604 58.5818L50.5656 30.8624L60.8505 58.7935H60.9197C61.3282 59.7789 61.8585 60.7094 62.4981 61.5634L62.5422 61.5948C64.283 63.1051 66.5145 63.9309 68.8202 63.9181C69.9487 64.0009 71.0822 63.8515 72.1505 63.4789C73.2189 63.1063 74.1992 62.5186 75.0309 61.7521L75.0141 61.7353C75.7578 60.7775 76.3607 59.7184 76.8045 58.5902L79.1973 52.8492L85.8363 37.9327C88.7664 32.1435 89.9229 29.7679 94.8303 29.3611Z" fill="white"/>
<path d="M315.215 35.2153H316.424V19.3889L329.4 35.5173H330V15.319H328.795V30.2418L318.231 17.1265C317.748 16.5192 317.125 16.0376 316.415 15.7229C315.705 15.4082 314.93 15.2696 314.155 15.319H312.195V15.9208H312.499C314.611 15.9208 315.215 17.1265 315.215 18.9339V35.2153ZM300.277 19.5377L303.898 28.2813H296.505L300.277 19.5377ZM311.594 34.6115C309.934 34.4605 309.21 33.7078 308.274 31.4453L301.635 15.319H300.728L292.278 35.2153H293.636L296.05 29.4869H304.502L305.258 31.4453C305.56 32.5728 306.227 33.5688 307.155 34.278C308.082 34.9872 309.219 35.3699 310.387 35.3663C310.795 35.3693 311.201 35.3179 311.594 35.2132V34.6115ZM283.496 31.5963C283.496 34.6115 284.098 35.2153 286.21 35.2153H288.926V34.6135H288.323C286.514 34.6135 286.21 33.4079 286.21 31.5984V15.319H283.496V31.5963ZM272.029 31.1455C273.99 34.4626 275.346 35.5173 277.459 35.5173C278.076 35.5318 278.69 35.4293 279.269 35.2153V34.6135C277.761 34.4626 276.735 33.7098 275.195 31.1476L272.027 25.87C273.324 25.7662 274.537 25.1846 275.429 24.238C276.321 23.2914 276.829 22.0474 276.855 20.7476C276.855 15.925 271.874 15.3211 269.311 15.3211H261.465V15.9229H262.07C263.879 15.9229 264.181 17.1286 264.181 18.936V35.2153H266.895V26.021H269.007L272.029 31.1455ZM269.162 24.9663C268.398 24.9509 267.639 24.8496 266.897 24.6644V16.6757C267.639 16.4924 268.398 16.3918 269.162 16.3758C269.755 16.3305 270.351 16.408 270.912 16.6034C271.473 16.7989 271.988 17.1081 272.424 17.5117C272.86 17.9152 273.208 18.4045 273.446 18.9487C273.684 19.4929 273.807 20.0803 273.807 20.6742C273.807 21.2681 273.684 21.8555 273.446 22.3997C273.208 22.9439 272.86 23.4332 272.424 23.8367C271.988 24.2403 271.473 24.5495 270.912 24.745C270.351 24.9404 269.755 25.0179 269.162 24.9726V24.9663ZM244.363 15.3211C242.249 15.3211 241.8 16.5268 241.8 17.7324V19.9928H242.394C242.394 17.5815 243.754 16.5268 246.172 16.5268H248.886V35.2174H251.602V16.5247H258.392V15.319L244.363 15.3211ZM231.335 19.5398L234.956 28.2834H227.561L231.335 19.5398ZM242.652 34.6135C240.992 34.4626 240.268 33.7098 239.332 31.4474L232.693 15.3211H231.788L223.338 35.2174H224.696L227.112 29.4848H235.56L236.316 31.4432C236.618 32.5703 237.284 33.5661 238.212 34.2753C239.139 34.9845 240.276 35.3673 241.443 35.3642C241.852 35.3675 242.258 35.3161 242.652 35.2111V34.6135ZM219.564 30.1516C219.564 27.9206 218.387 26.6856 215.822 25.1781L212.111 22.9848C209.909 21.689 208.752 20.7853 208.752 19.0366C208.78 18.6062 208.893 18.1854 209.084 17.7987C209.275 17.412 209.542 17.067 209.867 16.7835C210.193 16.5001 210.571 16.2838 210.981 16.1473C211.39 16.0107 211.823 15.9566 212.253 15.9879C215.635 15.9879 217.566 17.5877 218.229 21.6261H218.773V18.3929C218.773 16.1326 215.242 14.776 212.253 14.776C208.723 14.776 206.4 16.7952 206.4 19.9005C206.408 21.0176 206.748 22.1069 207.379 23.0297C208.009 23.9525 208.9 24.6668 209.938 25.0816L213.651 27.2811C215.853 28.5769 216.972 29.6924 216.972 31.439C216.97 33.4352 215.108 34.5171 213.009 34.5171C209.63 34.5171 207.604 32.8585 206.941 28.8181H206.397V32.045C206.397 34.3032 209.989 35.7227 213.278 35.7227C217.18 35.729 219.564 33.5274 219.564 30.1516ZM192.173 19.5398L195.794 28.2834H188.399L192.173 19.5398ZM203.49 34.6135C201.83 34.4626 201.106 33.7098 200.17 31.4474L193.531 15.319H192.624L184.176 35.2153H185.534L187.948 29.4848H196.398L197.154 31.4432C197.455 32.5709 198.122 33.567 199.05 34.2763C199.978 34.9856 201.115 35.3681 202.284 35.3642C202.691 35.3671 203.097 35.3156 203.49 35.2111V34.6135ZM161.165 15.319V15.9208H161.77C163.583 15.9208 163.883 17.1265 163.883 18.9339V35.2132H166.599V25.2661L172.936 31.8982C175.805 34.9134 177.764 35.5173 179.426 35.5173C180.092 35.5315 180.756 35.4293 181.386 35.2153V34.6429C179.376 34.0684 177.588 32.8987 176.257 31.2881L169.318 24.0521L175.195 18.1811C175.713 17.5153 176.379 16.9779 177.139 16.611C177.9 16.244 178.735 16.0574 179.579 16.0655V15.3127H178.07C175.656 15.3127 174.449 16.9713 172.94 18.4768L166.604 24.809V18.9381C166.604 15.925 166.001 15.3211 163.888 15.3211L161.165 15.319ZM153.321 31.5963C153.321 34.6115 153.924 35.2153 156.035 35.2153H158.751V34.6135H158.147C156.338 34.6135 156.033 33.4079 156.033 31.5984V15.319H153.326L153.321 31.5963ZM131.299 35.5173H131.902L136.247 22.8255L140.715 35.5173H141.32L148.232 15.319H146.932L141.773 30.4829L137.726 18.8437C137.47 17.6932 136.807 16.6733 135.86 15.9706C134.913 15.268 133.744 14.9295 132.567 15.0171C132.296 15.0171 131.692 15.0779 131.543 15.0779V15.6818C133.352 15.8348 134.047 16.5561 134.861 18.8458L135.585 20.9279L132.355 30.4829L128.31 18.8437C128.054 17.6938 127.391 16.6744 126.445 15.9719C125.498 15.2694 124.33 14.9305 123.153 15.0171C122.88 15.0171 122.276 15.0779 122.125 15.0779V15.6818C123.934 15.8348 124.631 16.5561 125.445 18.8458L131.299 35.5173Z" fill="white"/>
<path d="M297.848 59.7602H296.686L297.735 54.7153C297.828 54.3094 297.886 53.8962 297.907 53.4803C297.916 53.2873 297.882 53.0947 297.808 52.9163C297.733 52.7379 297.62 52.5783 297.477 52.4487C297.146 52.1816 296.728 52.0464 296.304 52.0692C295.654 52.0922 295.02 52.2744 294.458 52.5999C293.896 52.9253 293.422 53.384 293.08 53.9353C293.092 53.7571 293.096 53.6082 293.096 53.4761C293.096 52.7003 292.962 52.3166 292.691 52.3166H290.892L290.666 52.5074L290.542 53.0945L290.525 53.1805L290.666 53.321H291.864C291.864 53.4363 291.879 53.5768 291.879 53.7403C291.875 54.0229 291.839 54.3041 291.774 54.579L290.515 60.5276L290.496 60.6471L290.634 60.754H291.552L291.761 60.5758L292.586 56.7492C292.772 55.8156 293.201 54.9476 293.831 54.2331C294.064 53.9361 294.358 53.693 294.694 53.5207C295.03 53.3484 295.399 53.2509 295.777 53.235C295.883 53.2182 295.991 53.2263 296.093 53.2585C296.195 53.2907 296.288 53.3463 296.365 53.4207C296.442 53.4952 296.501 53.5865 296.536 53.6874C296.572 53.7884 296.583 53.8962 296.57 54.0024C296.556 54.2463 296.521 54.4884 296.463 54.7258L295.443 59.5715C295.412 59.7043 295.394 59.8398 295.388 59.9761C295.388 60.5003 295.682 60.7645 296.272 60.7645H297.611L297.84 60.5905L297.962 60.0034L297.978 59.8629L297.848 59.7602ZM285.045 56.4053C284.901 57.2047 284.59 57.9645 284.13 58.6342C283.936 58.9628 283.667 59.2408 283.345 59.4453C283.023 59.6498 282.656 59.7749 282.276 59.8105C281.55 59.8105 281.185 59.3408 281.185 58.4077C281.199 57.2173 281.475 56.0446 281.995 54.9732C282.532 53.8137 283.194 53.2308 283.966 53.2308C284.583 53.2702 285.16 53.5522 285.57 54.015L285.045 56.4053ZM287.016 59.7602H285.838L285.819 59.4268C285.814 59.0752 285.844 58.724 285.91 58.3784L287.14 52.5535L287.156 52.4131L287.016 52.3271H286.315L286.082 52.4676L285.836 53.0295C285.609 52.7245 285.324 52.4679 284.997 52.2747C284.667 52.1287 284.307 52.0619 283.947 52.0797C283.381 52.1041 282.831 52.2763 282.352 52.579C281.874 52.8818 281.483 53.3046 281.218 53.8053C280.306 55.1954 279.829 56.8254 279.848 58.4874C279.81 59.1494 279.999 59.8046 280.383 60.3452C280.555 60.565 280.777 60.741 281.03 60.8587C281.283 60.9764 281.561 61.0325 281.84 61.0224C282.431 60.9823 283.001 60.7865 283.492 60.4551C283.983 60.1237 284.378 59.6683 284.636 59.1353C284.615 59.3051 284.604 59.4759 284.604 59.6469C284.58 59.7975 284.592 59.9514 284.638 60.0966C284.684 60.2419 284.764 60.3743 284.87 60.4836C284.976 60.5929 285.107 60.6759 285.251 60.7261C285.395 60.7763 285.548 60.7923 285.7 60.7729H286.791L287.018 60.5989L287.142 60.0118L287.158 59.8881L287.016 59.7602ZM276.359 59.7602H275.194L276.244 54.7153C276.339 54.3097 276.398 53.8964 276.42 53.4803C276.43 53.2872 276.396 53.0944 276.322 52.916C276.247 52.7375 276.134 52.5779 275.99 52.4487C275.659 52.1821 275.241 52.047 274.817 52.0692C274.167 52.092 273.534 52.2742 272.972 52.5996C272.41 52.9251 271.937 53.3839 271.595 53.9353C271.607 53.7571 271.612 53.6082 271.612 53.4761C271.612 52.7003 271.475 52.3166 271.206 52.3166H269.408L269.175 52.5074L269.055 53.0945L269.034 53.1805L269.175 53.321H270.373C270.386 53.4604 270.392 53.6003 270.39 53.7403C270.384 54.0227 270.35 54.3037 270.287 54.579L269.028 60.5276L269.011 60.6471L269.15 60.754H270.067L270.277 60.5758L271.104 56.7492C271.286 55.8148 271.715 54.9461 272.346 54.2331C272.579 53.936 272.874 53.693 273.211 53.5207C273.547 53.3484 273.916 53.2509 274.294 53.235C274.4 53.2182 274.508 53.2263 274.61 53.2585C274.712 53.2907 274.806 53.3463 274.883 53.4207C274.96 53.4952 275.018 53.5865 275.054 53.6874C275.089 53.7884 275.101 53.8962 275.087 54.0024C275.073 54.2462 275.037 54.4882 274.98 54.7258L273.958 59.5715C273.925 59.704 273.907 59.8397 273.904 59.9761C273.904 60.5003 274.2 60.7645 274.785 60.7645H276.122L276.355 60.5905L276.479 60.0034L276.494 59.8629L276.359 59.7602ZM265.665 52.3166H263.147L262.918 52.4865L262.794 53.0924L262.779 53.2119L262.918 53.3189H264.345L263.023 59.561C262.996 59.6956 262.985 59.8327 262.989 59.9698C262.989 60.4982 263.285 60.7624 263.871 60.7624H265.208L265.418 60.5884L265.558 60.0013L265.573 59.8776L265.418 59.7581H264.265L265.798 52.5431L265.818 52.4571L265.665 52.3166ZM266.482 48.5236C266.395 48.4309 266.29 48.3571 266.173 48.3066C266.057 48.2561 265.931 48.2301 265.804 48.23C265.671 48.2286 265.54 48.2537 265.417 48.3038C265.294 48.3539 265.183 48.428 265.089 48.5218C264.995 48.6155 264.921 48.7271 264.871 48.8498C264.822 48.9725 264.797 49.104 264.798 49.2364C264.798 49.3631 264.823 49.4885 264.873 49.605C264.923 49.7215 264.996 49.8265 265.088 49.9137C265.179 50.0055 265.288 50.0784 265.408 50.1281C265.527 50.1778 265.655 50.2034 265.785 50.2034C265.914 50.2034 266.043 50.1778 266.162 50.1281C266.282 50.0784 266.39 50.0055 266.482 49.9137C266.573 49.8225 266.646 49.7142 266.696 49.5949C266.745 49.4757 266.771 49.3478 266.771 49.2186C266.771 49.0895 266.745 48.9616 266.696 48.8423C266.646 48.723 266.573 48.6147 266.482 48.5236ZM257.421 58.0827C256.939 59.2513 256.316 59.8349 255.55 59.8335C254.877 59.7987 254.231 59.5546 253.703 59.1353L254.32 56.2292C254.434 55.4773 254.716 54.7606 255.145 54.1324C255.349 53.8561 255.614 53.6305 255.92 53.4731C256.225 53.3156 256.563 53.2306 256.906 53.2245C257.683 53.2245 258.071 53.7613 258.071 54.8348C258.068 55.9495 257.847 57.0527 257.421 58.0827ZM257.349 52.0566C256.836 52.0781 256.334 52.2142 255.88 52.4547C255.426 52.6952 255.031 53.0342 254.726 53.4468C254.692 53.0274 254.667 52.7905 254.654 52.7402C254.572 52.4466 254.419 52.3019 254.197 52.3019H252.377L252.167 52.4927L252.028 53.0798L252.007 53.1826L252.167 53.3063H253.365C253.406 53.5138 253.43 53.7241 253.437 53.9353C253.43 54.288 253.388 54.6391 253.313 54.9837L251.55 63.3016H250.622L250.393 63.4756L250.272 64.0669L250.255 64.2032L250.393 64.306H253.829L254.039 64.1361L254.178 63.5448L254.195 63.4211L254.039 63.3016H252.82L253.473 60.2592C254.067 60.7238 254.796 60.9828 255.55 60.9973C256.06 60.9968 256.561 60.8657 257.005 60.6164C257.45 60.3671 257.822 60.008 258.088 59.5735C258.994 58.2157 259.456 56.6106 259.41 54.9795C259.412 53.0365 258.725 52.065 257.349 52.065V52.0566ZM248.716 59.7602H247.551L248.63 54.6629C248.718 54.2862 248.77 53.9023 248.788 53.516C248.796 53.3227 248.765 53.1298 248.695 52.9493C248.625 52.7689 248.519 52.6048 248.383 52.4676C248.229 52.3319 248.05 52.2278 247.857 52.1612C247.663 52.0947 247.458 52.0669 247.253 52.0797C246.573 52.0789 245.908 52.2883 245.352 52.6793C244.956 52.9808 244.61 53.3431 244.327 53.7529C244.294 52.6346 243.824 52.0755 242.919 52.0755C242.329 52.0702 241.748 52.2231 241.237 52.5181C240.726 52.8131 240.304 53.2395 240.014 53.7529V53.5956C240.014 52.7381 239.878 52.3124 239.609 52.3124H237.844L237.634 52.5032L237.51 53.0903L237.493 53.2098L237.634 53.3168H238.832L238.849 53.6669C238.842 53.9885 238.801 54.3083 238.725 54.621L237.476 60.5318L237.455 60.6513L237.6 60.7582H238.513L238.723 60.58L239.586 56.5961C239.726 55.7551 240.03 54.9499 240.482 54.2268C240.688 53.9247 240.964 53.6765 241.286 53.5028C241.608 53.3292 241.967 53.2352 242.333 53.2287C242.875 53.2287 243.148 53.4761 243.148 53.9794C243.133 54.2106 243.097 54.4401 243.041 54.665L241.781 60.536V60.5863L241.765 60.6555L241.905 60.7624H242.856L243.066 60.5842L243.906 56.724C244.032 55.9111 244.299 55.1265 244.695 54.405C244.9 54.0519 245.193 53.7581 245.546 53.5526C245.899 53.3471 246.299 53.2369 246.708 53.2329C246.81 53.2179 246.914 53.2269 247.013 53.2592C247.111 53.2916 247.2 53.3463 247.274 53.4192C247.347 53.4921 247.402 53.581 247.435 53.679C247.468 53.7769 247.478 53.8812 247.463 53.9835C247.457 54.2143 247.428 54.4439 247.377 54.6692L246.328 59.5861C246.298 59.7078 246.281 59.8321 246.275 59.9573C246.275 60.494 246.577 60.7624 247.176 60.7624H248.508L248.718 60.5884L248.859 60.0013V59.9279L248.876 59.8587L248.716 59.7602ZM234.11 52.3166H231.591L231.36 52.4865L231.236 53.0924L231.22 53.2119L231.36 53.3189H232.781L231.459 59.561C231.433 59.6957 231.422 59.8327 231.425 59.9698C231.425 60.4982 231.715 60.7624 232.305 60.7624H233.64L233.849 60.5884L233.99 60.0013L234.007 59.8776L233.849 59.7581H232.685L234.217 52.5431L234.234 52.4571L234.11 52.3166ZM234.928 48.5236C234.842 48.4304 234.737 48.3563 234.62 48.3057C234.503 48.2552 234.378 48.2294 234.25 48.23C234.118 48.2297 233.987 48.2556 233.865 48.3061C233.743 48.3567 233.632 48.4308 233.539 48.5244C233.446 48.618 233.372 48.7291 233.322 48.8513C233.272 48.9735 233.246 49.1044 233.247 49.2364C233.247 49.3634 233.274 49.4889 233.324 49.6053C233.375 49.7218 233.448 49.8267 233.541 49.9137C233.631 50.006 233.74 50.0793 233.859 50.129C233.978 50.1787 234.106 50.2039 234.236 50.2031C234.365 50.2047 234.494 50.1799 234.613 50.1302C234.733 50.0804 234.841 50.0067 234.93 49.9137C235.023 49.8231 235.097 49.715 235.147 49.5956C235.197 49.4763 235.223 49.3481 235.223 49.2186C235.223 49.0892 235.197 48.961 235.147 48.8416C235.097 48.7223 235.023 48.6141 234.93 48.5236H234.928ZM227.576 59.7602H226.411L227.485 54.6629C227.576 54.2867 227.63 53.9026 227.647 53.516C227.656 53.3227 227.625 53.1297 227.555 52.9493C227.485 52.7688 227.379 52.6048 227.242 52.4676C226.932 52.1949 226.527 52.0555 226.115 52.0797C225.433 52.0788 224.767 52.2882 224.209 52.6793C223.816 52.9834 223.472 53.3454 223.189 53.7529C223.151 52.6374 222.685 52.0755 221.781 52.0755C221.19 52.0697 220.608 52.2223 220.097 52.5173C219.585 52.8123 219.162 53.239 218.871 53.7529V53.5956C218.871 52.7381 218.735 52.3124 218.466 52.3124H216.703L216.493 52.5032L216.369 53.0903L216.353 53.2098L216.493 53.3168H217.688L217.709 53.6669C217.7 53.9883 217.658 54.3079 217.585 54.621L216.336 60.5318L216.315 60.6513L216.456 60.7582H217.373L217.583 60.58L218.447 56.5961C218.587 55.7551 218.892 54.95 219.344 54.2268C219.549 53.924 219.825 53.6752 220.147 53.5014C220.469 53.3277 220.829 53.2341 221.195 53.2287C221.736 53.2287 222.005 53.4761 222.005 53.9794C221.992 54.2106 221.958 54.4401 221.902 54.665L220.643 60.536V60.5863L220.626 60.6555L220.763 60.7624H221.697L221.907 60.5842L222.746 56.724C222.871 55.9107 223.138 55.1256 223.535 54.405C223.739 54.0522 224.032 53.7586 224.384 53.5531C224.736 53.3476 225.136 53.2372 225.544 53.2329C225.647 53.2176 225.751 53.2264 225.85 53.2586C225.948 53.2907 226.038 53.3454 226.112 53.4183C226.186 53.4911 226.241 53.5801 226.275 53.6783C226.308 53.7764 226.318 53.8809 226.304 53.9835C226.298 54.2146 226.268 54.4445 226.214 54.6692L225.177 59.5861C225.146 59.7076 225.127 59.832 225.122 59.9573C225.122 60.494 225.42 60.7624 226.018 60.7624H227.357L227.567 60.5884L227.708 60.0013V59.9279L227.725 59.8587L227.576 59.7602ZM208.104 56.3298C208.233 55.4734 208.586 54.6661 209.128 53.9898C209.337 53.728 209.602 53.5167 209.904 53.3715C210.206 53.2263 210.537 53.151 210.872 53.1511C211.712 53.1511 212.132 53.5558 212.132 54.3652C212.139 55.6721 210.796 56.325 208.104 56.3236V56.3298ZM212.774 52.6689C212.543 52.4612 212.274 52.3013 211.981 52.1983C211.688 52.0954 211.378 52.0515 211.068 52.0692C210.551 52.0608 210.039 52.1616 209.565 52.3651C209.091 52.5686 208.665 52.87 208.316 53.2497C207.165 54.483 206.551 56.1227 206.609 57.8081C206.609 59.9426 207.561 61.0105 209.464 61.0119C210.577 60.9989 211.657 60.6317 212.547 59.9636L212.722 59.7539L212.688 59.6679L212.268 59.0389L212.128 58.9361L211.884 59.0389C211.212 59.5138 210.413 59.778 209.59 59.7979C208.486 59.7979 207.935 59.1402 207.938 57.8248V57.4055C209.187 57.4483 210.433 57.2694 211.62 56.8771C212.156 56.7063 212.622 56.3631 212.943 55.9009C213.265 55.4387 213.424 54.8833 213.397 54.3211C213.415 54.0165 213.369 53.7115 213.262 53.4258C213.154 53.1402 212.988 52.8801 212.774 52.6626V52.6689ZM201.465 58.0827C200.982 59.2506 200.361 59.8335 199.597 59.8335C198.922 59.7993 198.275 59.5552 197.746 59.1353L198.358 56.2376C198.476 55.4841 198.763 54.7672 199.198 54.1408C199.402 53.8645 199.667 53.6389 199.972 53.4815C200.278 53.324 200.615 53.239 200.959 53.2329C201.736 53.2329 202.124 53.7697 202.124 54.8432C202.118 55.9556 201.894 57.0561 201.465 58.0827ZM201.396 52.0566C200.882 52.0786 200.379 52.2147 199.925 52.4552C199.47 52.6957 199.075 53.0344 198.768 53.4468C198.734 53.0274 198.709 52.7905 198.698 52.7402C198.617 52.4466 198.463 52.3019 198.243 52.3019H196.425L196.215 52.4927L196.075 53.0798L196.05 53.191L196.207 53.3147H197.406C197.445 53.5222 197.468 53.7326 197.475 53.9437C197.47 54.2965 197.429 54.6479 197.351 54.9921L195.59 63.31H194.656L194.429 63.484L194.305 64.0753L194.289 64.2116L194.429 64.3144H197.863L198.073 64.1445L198.214 63.5532L198.235 63.4295L198.073 63.31H196.858L197.51 60.2676C198.104 60.7331 198.834 60.9922 199.588 61.0056C200.098 61.0048 200.599 60.8735 201.043 60.6243C201.487 60.375 201.86 60.0161 202.126 59.5819C203.03 58.2233 203.492 56.6188 203.448 54.9879C203.453 53.0393 202.768 52.065 201.394 52.065L201.396 52.0566ZM187.962 56.3173C188.09 55.4612 188.442 54.654 188.982 53.9773C189.191 53.7155 189.457 53.5041 189.759 53.3589C190.061 53.2137 190.392 53.1384 190.727 53.1385C191.573 53.1385 191.993 53.5432 191.986 54.3526C191.985 55.668 190.64 56.325 187.952 56.3236L187.962 56.3173ZM192.633 52.6563C192.401 52.4483 192.131 52.2882 191.837 52.1853C191.544 52.0823 191.233 52.0386 190.922 52.0566C190.406 52.0481 189.895 52.149 189.421 52.3525C188.948 52.556 188.523 52.8575 188.174 53.2371C187.603 53.847 187.158 54.5636 186.864 55.3459C186.57 56.1281 186.434 56.9606 186.464 57.7955C186.464 59.93 187.415 60.998 189.318 60.9994C190.432 60.9863 191.512 60.6191 192.402 59.951L192.576 59.7413L192.542 59.6553L192.122 59.0263L191.982 58.9236L191.734 59.0263C191.063 59.5005 190.266 59.7647 189.444 59.7853C188.34 59.7853 187.788 59.1276 187.788 57.8123V57.3929C189.037 57.4357 190.284 57.2568 191.47 56.8645C192.004 56.6912 192.467 56.3471 192.786 55.8852C193.106 55.4233 193.264 54.8693 193.237 54.3085C193.253 54.0065 193.206 53.7045 193.1 53.4213C192.994 53.1381 192.831 52.8798 192.62 52.6626L192.633 52.6563ZM185.582 48.6724H182.392L182.165 48.8674L182.024 49.5195L182.008 49.66L182.165 49.7627H183.005L178.612 54.3505L179.579 49.7732H180.727L180.954 49.5992L181.095 48.9303V48.7898L180.954 48.6829H177.272L177.063 48.8611L176.901 49.53V49.6537L177.042 49.7732H178.186L176.087 59.6679H174.926L174.716 59.8419L174.58 60.5108L174.559 60.6513L174.699 60.7582H178.381L178.612 60.58L178.752 59.9153L178.769 59.7916L178.628 59.6679H177.468L178.559 54.5455L181.166 59.6679H180.161L179.93 59.8608L179.793 60.5087L179.772 60.6492L179.913 60.7561H183.385L183.595 60.5779L183.731 59.9132L183.769 59.7685L183.611 59.6658H182.805L180.037 54.4721L184.602 49.7711H185.337L185.547 49.5971L185.687 48.9282L185.704 48.7877L185.582 48.6724ZM168.404 52.3019H166.012L166.578 49.6055L166.595 49.5195L166.492 49.3958L166.368 49.4126L165.43 49.6956L165.256 49.8739L164.744 52.3208H163.459L163.249 52.4906L163.109 53.0966L163.092 53.2161L163.233 53.3231H164.517L163.468 58.2106C163.387 58.5633 163.34 58.9227 163.327 59.2842C163.292 59.5162 163.311 59.7533 163.383 59.9767C163.455 60.2001 163.578 60.4037 163.742 60.5714C163.906 60.7392 164.107 60.8665 164.329 60.9433C164.551 61.0202 164.788 61.0444 165.021 61.014C165.539 61.0058 166.051 60.9064 166.534 60.7205C167.076 60.5318 167.344 60.3493 167.344 60.1879L167.328 60.081L167.221 59.4813L167.135 59.3743L167.011 59.4079C166.517 59.661 165.977 59.8115 165.424 59.8503C164.908 59.8503 164.652 59.5819 164.652 59.041C164.65 58.7591 164.679 58.478 164.738 58.2023L165.787 53.3273H167.953L168.184 53.1868L168.503 52.5577L168.553 52.4215L168.404 52.3019ZM157.591 56.4053C157.447 57.2049 157.134 57.9647 156.673 58.6342C156.481 58.9623 156.213 59.2401 155.892 59.4446C155.571 59.6491 155.205 59.7745 154.826 59.8105C154.098 59.8105 153.735 59.3408 153.735 58.4077C153.749 57.2174 154.026 56.0447 154.545 54.9732C155.087 53.813 155.744 53.2322 156.516 53.2308C157.133 53.2709 157.709 53.5527 158.12 54.015L157.591 56.4053ZM159.566 59.7602H158.384L158.367 59.4268C158.362 59.0753 158.391 58.7242 158.453 58.3784L159.69 52.5535L159.706 52.4131L159.566 52.3271H158.858L158.632 52.4676L158.384 53.0295C158.158 52.7242 157.872 52.4675 157.545 52.2747C157.215 52.1282 156.855 52.0614 156.495 52.0797C155.929 52.1037 155.379 52.2757 154.9 52.5785C154.421 52.8813 154.03 53.3043 153.766 53.8053C152.852 55.1944 152.374 56.8249 152.394 58.4874C152.356 59.1497 152.546 59.805 152.931 60.3452C153.102 60.5649 153.322 60.7409 153.574 60.8587C153.827 60.9764 154.103 61.0326 154.381 61.0224C154.973 60.9821 155.544 60.7863 156.036 60.455C156.528 60.1236 156.924 59.6684 157.184 59.1353C157.159 59.3047 157.148 59.4758 157.15 59.6469C157.126 59.7971 157.137 59.9509 157.183 60.0959C157.229 60.241 157.308 60.3734 157.414 60.4827C157.52 60.592 157.65 60.6751 157.793 60.7254C157.937 60.7758 158.09 60.7921 158.241 60.7729H159.337L159.564 60.5989L159.688 60.0118L159.704 59.8881L159.566 59.7602ZM149.136 52.2873C148.698 52.1449 148.241 52.0741 147.78 52.0776C147.01 52.0431 146.254 52.2999 145.665 52.7968C145.4 53.0282 145.191 53.3152 145.051 53.6371C144.911 53.959 144.844 54.3079 144.854 54.6587C144.869 55.0427 144.982 55.4165 145.182 55.7447C145.382 56.0728 145.663 56.3442 145.998 56.5332C146.425 56.8046 146.836 57.0993 147.23 57.416C147.373 57.5404 147.487 57.6947 147.563 57.8679C147.64 58.0411 147.677 58.229 147.673 58.4182C147.679 58.6127 147.643 58.8061 147.566 58.985C147.49 59.1639 147.375 59.3239 147.23 59.454C146.915 59.7298 146.505 59.8732 146.086 59.8545C145.578 59.8556 145.076 59.7431 144.617 59.5253L144.882 58.2673L144.898 58.1477L144.741 58.024H143.964L143.754 58.2169L143.349 60.0663L143.333 60.169L143.387 60.2927C143.7 60.5371 144.062 60.7102 144.449 60.8002C144.91 60.9378 145.389 61.0084 145.87 61.0098C146.586 61.0416 147.292 60.8367 147.879 60.4269C148.234 60.1692 148.519 59.8277 148.71 59.4329C148.9 59.0381 148.99 58.6024 148.97 58.1645C148.948 57.7344 148.815 57.3175 148.583 56.9544C148.351 56.5912 148.029 56.2944 147.648 56.0929C147.041 55.6736 146.664 55.4115 146.523 55.2836C146.413 55.1874 146.324 55.0688 146.263 54.9358C146.201 54.8028 146.169 54.6583 146.168 54.5119C146.16 54.3346 146.192 54.1578 146.263 53.9947C146.333 53.8317 146.439 53.6866 146.573 53.5705C146.892 53.3292 147.287 53.2095 147.686 53.2329C147.979 53.2332 148.27 53.2792 148.548 53.3692L148.301 54.4994L148.284 54.6398L148.441 54.7426H149.218L149.428 54.5644L149.778 52.9079L149.795 52.7506C149.785 52.5892 149.571 52.4215 149.136 52.2831V52.2873ZM140.801 52.1216L140.698 52.1384L139.781 52.3334L139.603 52.5263L138.669 56.8729C138.555 57.5853 138.251 58.2539 137.789 58.8082C137.535 59.1101 137.22 59.3553 136.865 59.5279C136.51 59.7006 136.123 59.7968 135.728 59.8105C135.613 59.8243 135.495 59.8113 135.385 59.7725C135.276 59.7337 135.176 59.6702 135.095 59.5868C135.014 59.5035 134.953 59.4026 134.917 59.2919C134.881 59.1812 134.872 59.0638 134.889 58.9487C134.895 58.5515 134.943 58.156 135.029 57.7682L136.158 52.5095V52.4215L136.056 52.3187H133.614L133.405 52.5095L133.281 53.0966L133.264 53.1994L133.405 53.3231H134.71L133.686 58.1205C133.6 58.5211 133.554 58.9291 133.549 59.3387C133.54 59.5665 133.581 59.7935 133.668 60.0039C133.756 60.2144 133.889 60.4031 134.057 60.5569C134.429 60.874 134.908 61.0382 135.396 61.0161C135.981 60.9746 136.55 60.8048 137.061 60.5189C137.573 60.2329 138.015 59.8379 138.356 59.3618L138.339 59.7329C138.339 60.4227 138.662 60.7687 139.311 60.7687H140.489L140.719 60.5947L140.839 60.0076L140.86 59.8671L140.703 59.7644H139.538L139.521 59.3764C139.526 59.0236 139.567 58.6723 139.645 58.3281L140.904 52.346L140.921 52.239L140.801 52.1216ZM128.999 53.8431C128.443 54.3049 127.728 54.5308 127.007 54.4721H125.859L126.814 49.9473H128.31C128.743 49.9052 129.177 50.0101 129.543 50.245C129.675 50.3867 129.775 50.5551 129.836 50.7389C129.897 50.9228 129.918 51.1176 129.897 51.3102C129.926 51.7703 129.861 52.2315 129.706 52.666C129.552 53.1005 129.311 53.4994 128.999 53.8389V53.8431ZM130.386 49.0582C129.774 48.7622 129.094 48.6342 128.415 48.6871H124.541L124.331 48.8653L124.173 49.5342V49.6579L124.314 49.7774H125.462L123.363 59.6721H122.203L121.993 59.8461L121.856 60.515L121.835 60.6555L121.976 60.7624H125.869L126.1 60.5842L126.241 59.9195L126.258 59.7748L126.1 59.6721H124.74L125.603 55.6232H126.862C127.916 55.6927 128.961 55.3964 129.822 54.7845C130.34 54.3426 130.747 53.7856 131.01 53.1583C131.274 52.5309 131.386 51.8505 131.339 51.1718C131.382 50.7661 131.316 50.3564 131.149 49.9844C130.982 49.6123 130.718 49.2913 130.386 49.054V49.0582Z" fill="white"/>
</g>
<defs>
<clipPath id="clip0_26_24">
<rect width="330" height="65" fill="white"/>
</clipPath>
</defs>
</svg>
