<svg width="34" height="34" viewBox="0 0 34 34" fill="none" xmlns="http://www.w3.org/2000/svg">
<path d="M26.6381 19.9206V22.9206C26.6392 23.1991 26.5822 23.4748 26.4706 23.7299C26.3591 23.9851 26.1954 24.2142 25.9902 24.4025C25.785 24.5907 25.5427 24.7341 25.2789 24.8233C25.015 24.9125 24.7355 24.9457 24.4581 24.9206C21.381 24.5862 18.4251 23.5347 15.8281 21.8506C13.4119 20.3152 11.3635 18.2668 9.82812 15.8506C8.13809 13.2418 7.08636 10.2716 6.75812 7.18059C6.73313 6.90405 6.76599 6.62535 6.85462 6.36221C6.94324 6.09907 7.08569 5.85727 7.27288 5.65221C7.46008 5.44714 7.68792 5.28329 7.94191 5.17111C8.19589 5.05892 8.47046 5.00085 8.74812 5.00059H11.7481C12.2334 4.99581 12.7039 5.16766 13.0719 5.48412C13.4398 5.80057 13.6802 6.24003 13.7481 6.72059C13.8747 7.68065 14.1096 8.62331 14.4481 9.53059C14.5827 9.88851 14.6118 10.2775 14.532 10.6515C14.4523 11.0254 14.267 11.3687 13.9981 11.6406L12.7281 12.9106C14.1517 15.4141 16.2246 17.487 18.7281 18.9106L19.9981 17.6406C20.27 17.3717 20.6133 17.1864 20.9872 17.1067C21.3612 17.0269 21.7502 17.056 22.1081 17.1906C23.0154 17.5291 23.9581 17.764 24.9181 17.8906C25.4039 17.9591 25.8475 18.2038 26.1646 18.5781C26.4818 18.9524 26.6503 19.4302 26.6381 19.9206Z" stroke="white" stroke-width="2" stroke-linecap="round" stroke-linejoin="round"/>
</svg>
