<svg width="25" height="25" viewBox="0 0 25 25" fill="none" xmlns="http://www.w3.org/2000/svg">
<g clip-path="url(#clip0_82_184)">
<path d="M23.1233 7.04988C23.0045 6.57529 22.7626 6.14045 22.422 5.78929C22.0814 5.43812 21.6541 5.18307 21.1833 5.04988C19.4633 4.62988 12.5833 4.62988 12.5833 4.62988C12.5833 4.62988 5.70334 4.62988 3.98334 5.08988C3.51258 5.22307 3.08531 5.47812 2.74468 5.82929C2.40405 6.18045 2.16212 6.61529 2.04334 7.08988C1.72855 8.83544 1.57457 10.6062 1.58334 12.3799C1.57211 14.1669 1.7261 15.9512 2.04334 17.7099C2.17429 18.1697 2.42164 18.588 2.76148 18.9244C3.10132 19.2607 3.52216 19.5037 3.98334 19.6299C5.70334 20.0899 12.5833 20.0899 12.5833 20.0899C12.5833 20.0899 19.4633 20.0899 21.1833 19.6299C21.6541 19.4967 22.0814 19.2416 22.422 18.8905C22.7626 18.5393 23.0045 18.1045 23.1233 17.6299C23.4357 15.8975 23.5897 14.1402 23.5833 12.3799C23.5946 10.5928 23.4406 8.80858 23.1233 7.04988V7.04988Z" stroke="white" stroke-width="2" stroke-linecap="round" stroke-linejoin="round"/>
<path d="M10.3333 15.6499L16.0833 12.3799L10.3333 9.10986V15.6499Z" stroke="white" stroke-width="2" stroke-linecap="round" stroke-linejoin="round"/>
</g>
<defs>
<clipPath id="clip0_82_184">
<rect width="24" height="24" fill="white" transform="translate(0.583313 0.629883)"/>
</clipPath>
</defs>
</svg>
